<svg xmlns="http://www.w3.org/2000/svg" xmlns:xlink="http://www.w3.org/1999/xlink" id="Capa_1" x="0" y="0" version="1.1" viewBox="0 0 512 512" xml:space="preserve" style="enable-background:new 0 0 512 512"><path style="fill:#1e88e5" d="M510.208,8.672C507.488,3.328,502.016,0,496,0H336c-5.152,0-10.016,2.496-13.024,6.688	L173.696,215.52c-4.32,4.512-5.6,11.136-3.296,16.96c2.304,5.792,7.776,9.728,14.016,10.08l154.24,8.32c0.32,0,0.608,0,0.864,0	c5.152,0,10.016-2.496,13.024-6.688l156.48-218.88C512.512,20.416,512.96,14.016,510.208,8.672z"/><path style="fill:#2196f3" d="M1.792,8.672C4.512,3.328,9.984,0,16,0h160c5.152,0,10.016,2.496,13.024,6.688l149.28,208.832	c4.288,4.512,5.568,11.136,3.296,16.928c-2.304,5.792-7.776,9.728-14.016,10.08l-154.24,8.32c-0.32,0-0.608,0-0.864,0	c-5.152,0-10.016-2.496-13.024-6.688L2.976,25.28C-0.512,20.416-0.96,14.016,1.792,8.672z"/><circle style="fill:#8d6e63" cx="256" cy="352" r="160"/><path style="fill:#fafafa" d="M304,320c0-26.464-21.536-48-48-48h-32c-8.832,0-16,7.168-16,16s7.168,16,16,16h32	c8.832,0,16,7.2,16,16s-7.168,16-16,16h-32c-8.832,0-16,7.168-16,16s7.168,16,16,16h32c8.832,0,16,7.2,16,16s-7.168,16-16,16h-32	c-8.832,0-16,7.168-16,16s7.168,16,16,16h32c26.464,0,48-21.536,48-48c0-12.352-4.8-23.488-12.48-32	C299.2,343.488,304,332.352,304,320z"/></svg>